<svg width="12" height="12" viewBox="0 0 12 12" fill="none" xmlns="http://www.w3.org/2000/svg">
<path d="M10.875 4.875C11.4963 4.875 12 5.37868 12 6C12 6.62132 11.4963 7.125 10.875 7.125L1.125 7.125C0.50368 7.125 -2.71588e-08 6.62132 0 6C2.71588e-08 5.37868 0.50368 4.875 1.125 4.875L10.875 4.875Z" fill="#ECECEC"/>
<path d="M7.125 10.875C7.125 11.4963 6.62132 12 6 12C5.37868 12 4.875 11.4963 4.875 10.875L4.875 1.125C4.875 0.503679 5.37868 -5.43176e-08 6 0C6.62132 5.43176e-08 7.125 0.50368 7.125 1.125L7.125 10.875Z" fill="#ECECEC"/>
</svg>
