<svg width="16" height="16" viewBox="0 0 16 16" fill="none" xmlns="http://www.w3.org/2000/svg">
<path d="M0 1C0 0.447715 0.450432 0 1.00607 0C1.5617 0 2.01214 0.447715 2.01214 1V15C2.01214 15.5523 1.5617 16 1.00607 16C0.450432 16 0 15.5523 0 15V1Z" fill="#ECECEC"/>
<path d="M6.03641 1C6.03641 0.447715 6.48684 0 7.04247 0C7.59811 0 8.04854 0.447715 8.04854 1V15C8.04854 15.5523 7.59811 16 7.04247 16C6.48684 16 6.03641 15.5523 6.03641 15V1Z" fill="#ECECEC"/>
<path d="M10.2916 1.37418C10.1478 0.840709 10.4663 0.292372 11.003 0.14943C11.5397 0.00648805 12.0913 0.32307 12.2352 0.856537L15.9655 14.6943C16.1093 15.2278 15.7908 15.7761 15.2541 15.9191C14.7174 16.062 14.1657 15.7454 14.0219 15.212L10.2916 1.37418Z" fill="#ECECEC"/>
</svg>
