<svg width="14" height="14" viewBox="0 0 14 14" fill="none" xmlns="http://www.w3.org/2000/svg">
<path d="M12.5 4C12.5 4.27614 12.7239 4.5 13 4.5C13.2761 4.5 13.5 4.27614 13.5 4H12.5ZM13.5 10C13.5 9.72386 13.2761 9.5 13 9.5C12.7239 9.5 12.5 9.72386 12.5 10H13.5ZM7 6.5C6.72386 6.5 6.5 6.72386 6.5 7C6.5 7.27614 6.72386 7.5 7 7.5V6.5ZM13.3536 7.35355C13.5488 7.15829 13.5488 6.84171 13.3536 6.64645L10.1716 3.46447C9.97631 3.2692 9.65973 3.2692 9.46447 3.46447C9.2692 3.65973 9.2692 3.97631 9.46447 4.17157L12.2929 7L9.46447 9.82843C9.2692 10.0237 9.2692 10.3403 9.46447 10.5355C9.65973 10.7308 9.97631 10.7308 10.1716 10.5355L13.3536 7.35355ZM11.5 12.5H2.5V13.5H11.5V12.5ZM1.5 11.5V2.5H0.5V11.5H1.5ZM2.5 1.5H11.5V0.5H2.5V1.5ZM12.5 2.5V4H13.5V2.5H12.5ZM11.5 1.5C12.0523 1.5 12.5 1.94772 12.5 2.5H13.5C13.5 1.39543 12.6046 0.5 11.5 0.5V1.5ZM1.5 2.5C1.5 1.94772 1.94772 1.5 2.5 1.5V0.5C1.39543 0.5 0.5 1.39543 0.5 2.5H1.5ZM2.5 12.5C1.94772 12.5 1.5 12.0523 1.5 11.5H0.5C0.5 12.6046 1.39543 13.5 2.5 13.5V12.5ZM12.5 11.5C12.5 12.0523 12.0523 12.5 11.5 12.5V13.5C12.6046 13.5 13.5 12.6046 13.5 11.5H12.5ZM12.5 10V11.5H13.5V10H12.5ZM7 7.5H13V6.5H7V7.5Z" fill="#ECECEC"/>
</svg>
