<svg width="14" height="14" viewBox="0 0 14 14" fill="none" xmlns="http://www.w3.org/2000/svg">
<path fill-rule="evenodd" clip-rule="evenodd" d="M7 14C10.866 14 14 10.866 14 7C14 3.13401 10.866 0 7 0C3.13401 0 0 3.13401 0 7C0 10.866 3.13401 14 7 14ZM6.99996 6.46154C7.89212 6.46154 8.61535 5.73831 8.61535 4.84616C8.61535 3.95401 7.89212 3.23077 6.99996 3.23077C6.10781 3.23077 5.38458 3.95401 5.38458 4.84616C5.38458 5.73831 6.10781 6.46154 6.99996 6.46154ZM7.76146 7.7615C7.3409 7.34094 6.65903 7.34094 6.23846 7.7615L4.53069 9.46927C3.85227 10.1477 4.33276 11.3077 5.29219 11.3077H8.70773C9.66717 11.3077 10.1477 10.1477 9.46923 9.46928L7.76146 7.7615Z" fill="#ECECEC"/>
</svg>
