<svg width="16" height="16" viewBox="0 0 16 16" fill="none" xmlns="http://www.w3.org/2000/svg">
<path d="M9.25771 8.59825L15.8306 15.033C16.0547 15.2524 16.0567 15.6129 15.8351 15.8349C15.6142 16.0562 15.2555 16.0549 15.0361 15.8319L8.58442 9.27262L9.25771 8.59825Z" fill="#ECECEC"/>
<path fill-rule="evenodd" clip-rule="evenodd" d="M5.38631 10.79C8.36108 10.79 10.7726 8.37454 10.7726 5.39498C10.7726 2.41541 8.36108 0 5.38631 0C2.41153 0 0 2.41541 0 5.39498C0 8.37454 2.41153 10.79 5.38631 10.79ZM5.38631 9.7784C7.80331 9.7784 9.76268 7.81587 9.76268 5.39498C9.76268 2.97408 7.80331 1.01156 5.38631 1.01156C2.9693 1.01156 1.00993 2.97408 1.00993 5.39498C1.00993 7.81587 2.9693 9.7784 5.38631 9.7784Z" fill="#ECECEC"/>
</svg>
