<svg width="14" height="14" viewBox="0 0 14 14" fill="none" xmlns="http://www.w3.org/2000/svg">
<path d="M9.45772 1.24646L10.8196 0.225049V0.225049C11.4985 -0.284093 11.683 0.785094 11.0041 1.29424L10.7012 1.52142C10.0831 1.98497 10.0189 2.88847 10.5652 3.43477C11.1115 3.98107 12.015 3.91686 12.4786 3.29879L12.7058 2.99588C13.2149 2.31702 14.2841 2.50154 13.775 3.1804V3.1804L12.5617 4.79806C12.3909 5.02583 12.1228 5.15988 11.8381 5.15988H8.84012V2.48166C8.84012 1.99568 9.06893 1.53805 9.45772 1.24646Z" fill="#ECECEC"/>
<path d="M4.54228 12.7535L3.1804 13.775V13.775C2.50154 14.2841 2.31702 13.2149 2.99588 12.7058L3.29879 12.4786C3.91686 12.015 3.98107 11.1115 3.43477 10.5652C2.88847 10.0189 1.98497 10.0831 1.52142 10.7012L1.29424 11.0041C0.785094 11.683 -0.284093 11.4985 0.225049 10.8196V10.8196L1.4383 9.20194C1.60912 8.97417 1.87722 8.84012 2.16193 8.84012H5.15988V11.5183C5.15988 12.0043 4.93107 12.4619 4.54228 12.7535Z" fill="#ECECEC"/>
<path d="M8.84012 4.23982L4.23982 8.84012H5.15988V9.76018L9.76018 5.15988H8.84012V4.23982Z" fill="#ECECEC"/>
</svg>
